<svg width="18" height="19" viewBox="0 0 18 19" fill="none" xmlns="http://www.w3.org/2000/svg">
<path d="M14.625 3.3125H3.375C2.44302 3.3125 1.6875 4.06802 1.6875 5V15.125C1.6875 16.057 2.44302 16.8125 3.375 16.8125H14.625C15.557 16.8125 16.3125 16.057 16.3125 15.125V5C16.3125 4.06802 15.557 3.3125 14.625 3.3125Z" stroke="#06142F" stroke-linejoin="round"/>
<path d="M10.4062 9.5C10.8722 9.5 11.25 9.12224 11.25 8.65625C11.25 8.19026 10.8722 7.8125 10.4062 7.8125C9.94026 7.8125 9.5625 8.19026 9.5625 8.65625C9.5625 9.12224 9.94026 9.5 10.4062 9.5Z" fill="#06142F"/>
<path d="M13.2188 9.5C13.6847 9.5 14.0625 9.12224 14.0625 8.65625C14.0625 8.19026 13.6847 7.8125 13.2188 7.8125C12.7528 7.8125 12.375 8.19026 12.375 8.65625C12.375 9.12224 12.7528 9.5 13.2188 9.5Z" fill="#06142F"/>
<path d="M10.4062 12.3125C10.8722 12.3125 11.25 11.9347 11.25 11.4688C11.25 11.0028 10.8722 10.625 10.4062 10.625C9.94026 10.625 9.5625 11.0028 9.5625 11.4688C9.5625 11.9347 9.94026 12.3125 10.4062 12.3125Z" fill="#06142F"/>
<path d="M13.2188 12.3125C13.6847 12.3125 14.0625 11.9347 14.0625 11.4688C14.0625 11.0028 13.6847 10.625 13.2188 10.625C12.7528 10.625 12.375 11.0028 12.375 11.4688C12.375 11.9347 12.7528 12.3125 13.2188 12.3125Z" fill="#06142F"/>
<path d="M4.78125 12.3125C5.24724 12.3125 5.625 11.9347 5.625 11.4688C5.625 11.0028 5.24724 10.625 4.78125 10.625C4.31526 10.625 3.9375 11.0028 3.9375 11.4688C3.9375 11.9347 4.31526 12.3125 4.78125 12.3125Z" fill="#06142F"/>
<path d="M7.59375 12.3125C8.05974 12.3125 8.4375 11.9347 8.4375 11.4688C8.4375 11.0028 8.05974 10.625 7.59375 10.625C7.12776 10.625 6.75 11.0028 6.75 11.4688C6.75 11.9347 7.12776 12.3125 7.59375 12.3125Z" fill="#06142F"/>
<path d="M4.78125 15.125C5.24724 15.125 5.625 14.7472 5.625 14.2812C5.625 13.8153 5.24724 13.4375 4.78125 13.4375C4.31526 13.4375 3.9375 13.8153 3.9375 14.2812C3.9375 14.7472 4.31526 15.125 4.78125 15.125Z" fill="#06142F"/>
<path d="M7.59375 15.125C8.05974 15.125 8.4375 14.7472 8.4375 14.2812C8.4375 13.8153 8.05974 13.4375 7.59375 13.4375C7.12776 13.4375 6.75 13.8153 6.75 14.2812C6.75 14.7472 7.12776 15.125 7.59375 15.125Z" fill="#06142F"/>
<path d="M10.4062 15.125C10.8722 15.125 11.25 14.7472 11.25 14.2812C11.25 13.8153 10.8722 13.4375 10.4062 13.4375C9.94026 13.4375 9.5625 13.8153 9.5625 14.2812C9.5625 14.7472 9.94026 15.125 10.4062 15.125Z" fill="#06142F"/>
<path d="M4.5 2.1875V3.3125M13.5 2.1875V3.3125" stroke="#06142F" stroke-linecap="round" stroke-linejoin="round"/>
<path d="M16.3125 6.125H1.6875" stroke="#06142F" stroke-linejoin="round"/>
</svg>
