<svg width="36" height="36" viewBox="0 0 36 36" fill="none" xmlns="http://www.w3.org/2000/svg">
<g clip-path="url(#clip0_225_354)">
<path d="M35.9776 26.1655C35.8208 25.7217 35.495 25.3579 35.0711 25.1533C34.6473 24.9487 34.1597 24.92 33.7147 25.0733L28.8117 26.5898C27.5703 27.7212 27.0988 27.4305 18.0001 27.4305C17.7917 27.4305 17.5918 27.3477 17.4445 27.2004C17.2971 27.053 17.2143 26.8532 17.2143 26.6448C17.2143 26.4364 17.2971 26.2365 17.4445 26.0892C17.5918 25.9418 17.7917 25.8591 18.0001 25.8591C27.4288 25.8591 27.1067 26.0398 27.7981 25.3483C28.0616 25.0573 28.2097 24.6801 28.2146 24.2876C28.2146 23.8708 28.049 23.4711 27.7543 23.1764C27.4596 22.8817 27.0599 22.7161 26.6431 22.7161H18.2358C17.1436 22.7161 16.2322 21.1447 13.0499 21.1447H7.78552V29.332L8.79912 29.9056C11.6821 31.5676 14.9069 32.5485 18.227 32.7732C21.5471 32.9979 24.8747 32.4605 27.9553 31.202L35.0269 28.3498C35.4279 28.1683 35.7472 27.8443 35.9229 27.4407C36.0986 27.0371 36.1181 26.5827 35.9776 26.1655Z" fill="#3CD856"/>
<path d="M-0.0717773 31.3594H6.21409V19.5734H-0.0717773V31.3594ZM2.34828 27.9178C2.39263 27.8103 2.4603 27.714 2.5464 27.6358C2.63249 27.5576 2.73487 27.4995 2.84615 27.4657C2.95742 27.4319 3.07482 27.4232 3.18986 27.4403C3.3049 27.4573 3.41472 27.4997 3.5114 27.5643C3.60808 27.629 3.6892 27.7143 3.74891 27.8141C3.80861 27.9139 3.84542 28.0257 3.85668 28.1415C3.86793 28.2572 3.85335 28.374 3.81398 28.4835C3.77461 28.5929 3.71144 28.6922 3.62902 28.7743C3.50038 28.9024 3.33135 28.982 3.15066 28.9995C2.96997 29.0171 2.78877 28.9716 2.63786 28.8707C2.48695 28.7697 2.37564 28.6197 2.32285 28.446C2.27006 28.2723 2.27905 28.0857 2.34828 27.9178Z" fill="#3CD856"/>
<path d="M23.5002 18.788C25.0542 18.788 26.5733 18.3272 27.8654 17.4638C29.1576 16.6004 30.1647 15.3733 30.7594 13.9376C31.3541 12.5018 31.5097 10.922 31.2065 9.39781C30.9033 7.87364 30.155 6.47359 29.0561 5.37473C27.9573 4.27586 26.5572 3.52752 25.033 3.22434C23.5089 2.92117 21.929 3.07677 20.4933 3.67147C19.0575 4.26617 17.8304 5.27327 16.967 6.5654C16.1036 7.85753 15.6428 9.37666 15.6428 10.9307C15.6428 13.0146 16.4706 15.0131 17.9442 16.4867C19.4177 17.9602 21.4163 18.788 23.5002 18.788ZM24.2859 11.7164H22.7144C22.0893 11.7164 21.4897 11.4681 21.0476 11.026C20.6056 10.584 20.3572 9.9844 20.3572 9.35923C20.3572 8.73406 20.6056 8.1345 21.0476 7.69244C21.4897 7.25038 22.0893 7.00203 22.7144 7.00203V6.2163C22.7144 6.00791 22.7972 5.80806 22.9446 5.6607C23.0919 5.51335 23.2918 5.43057 23.5002 5.43057C23.7085 5.43057 23.9084 5.51335 24.0557 5.6607C24.2031 5.80806 24.2859 6.00791 24.2859 6.2163V7.00203H25.8573C26.0657 7.00203 26.2656 7.08481 26.4129 7.23217C26.5603 7.37952 26.6431 7.57938 26.6431 7.78776C26.6431 7.99615 26.5603 8.19601 26.4129 8.34336C26.2656 8.49072 26.0657 8.5735 25.8573 8.5735H22.7144C22.506 8.5735 22.3062 8.65628 22.1588 8.80363C22.0115 8.95099 21.9287 9.15084 21.9287 9.35923C21.9287 9.56762 22.0115 9.76747 22.1588 9.91483C22.3062 10.0622 22.506 10.145 22.7144 10.145H24.2859C24.9111 10.145 25.5106 10.3933 25.9527 10.8354C26.3947 11.2774 26.6431 11.877 26.6431 12.5022C26.6431 13.1273 26.3947 13.7269 25.9527 14.169C25.5106 14.611 24.9111 14.8594 24.2859 14.8594V15.6451C24.2859 15.8535 24.2031 16.0533 24.0557 16.2007C23.9084 16.348 23.7085 16.4308 23.5002 16.4308C23.2918 16.4308 23.0919 16.348 22.9446 16.2007C22.7972 16.0533 22.7144 15.8535 22.7144 15.6451V14.8594H21.143C20.9346 14.8594 20.7347 14.7766 20.5874 14.6292C20.44 14.4819 20.3572 14.282 20.3572 14.0736C20.3572 13.8652 20.44 13.6654 20.5874 13.518C20.7347 13.3707 20.9346 13.2879 21.143 13.2879H24.2859C24.4943 13.2879 24.6941 13.2051 24.8415 13.0578C24.9888 12.9104 25.0716 12.7106 25.0716 12.5022C25.0716 12.2938 24.9888 12.0939 24.8415 11.9466C24.6941 11.7992 24.4943 11.7164 24.2859 11.7164Z" fill="#3CD856"/>
</g>
<defs>
<clipPath id="clip0_225_354">
<rect width="36" height="36" fill="white"/>
</clipPath>
</defs>
</svg>
