<svg width="18" height="18" viewBox="0 0 18 18" fill="none" xmlns="http://www.w3.org/2000/svg">
<path d="M4.90909 2.45455C4.90909 2.94001 4.76513 3.41457 4.49543 3.81822C4.22572 4.22187 3.84237 4.53647 3.39386 4.72225C2.94535 4.90803 2.45182 4.95664 1.97569 4.86193C1.49955 4.76722 1.0622 4.53344 0.718921 4.19017C0.375647 3.8469 0.141874 3.40954 0.0471646 2.9334C-0.0475446 2.45727 0.00106329 1.96374 0.186842 1.51523C0.372621 1.06672 0.687226 0.683374 1.09087 0.413665C1.49452 0.143956 1.96908 0 2.45455 0C3.10553 0 3.72986 0.258603 4.19017 0.71892C4.65049 1.17924 4.90909 1.80356 4.90909 2.45455Z" fill="#0077B5"/>
<path d="M4.35272 6.54549V17.3897C4.35315 17.4697 4.33776 17.549 4.30745 17.623C4.27713 17.697 4.23248 17.7644 4.17606 17.8211C4.11965 17.8778 4.05258 17.9228 3.97871 17.9535C3.90484 17.9842 3.82563 18 3.74563 18H1.15853C1.07853 18.0003 0.999281 17.9847 0.92533 17.9541C0.851378 17.9236 0.784186 17.8788 0.727617 17.8222C0.671049 17.7657 0.626219 17.6985 0.595704 17.6245C0.565189 17.5506 0.549591 17.4713 0.549807 17.3913V6.54549C0.549807 6.38405 0.613941 6.22922 0.728099 6.11506C0.842258 6.0009 0.99709 5.93677 1.15853 5.93677H3.74563C3.90679 5.9372 4.0612 6.00153 4.175 6.11564C4.28881 6.22975 4.35272 6.38433 4.35272 6.54549Z" fill="#0077B5"/>
<path d="M17.8757 12.1913V17.4407C17.8759 17.5143 17.8616 17.5871 17.8335 17.6551C17.8055 17.7231 17.7643 17.7849 17.7122 17.8369C17.6602 17.8889 17.5985 17.9301 17.5305 17.9582C17.4625 17.9862 17.3896 18.0006 17.316 18.0004H14.5342C14.4607 18.0006 14.3878 17.9862 14.3198 17.9582C14.2518 17.9301 14.19 17.8889 14.138 17.8369C14.086 17.7849 14.0448 17.7231 14.0167 17.6551C13.9887 17.5871 13.9744 17.5143 13.9746 17.4407V12.3533C13.9746 11.594 14.1971 9.02817 11.9897 9.02817C10.2797 9.02817 9.93113 10.784 9.86241 11.5727V17.4407C9.86242 17.5877 9.80458 17.7289 9.7014 17.8336C9.59821 17.9383 9.45795 17.9982 9.31095 18.0004H6.62404C6.55063 18.0004 6.47793 17.9859 6.41013 17.9577C6.34232 17.9296 6.28073 17.8883 6.2289 17.8363C6.17706 17.7843 6.13599 17.7226 6.10805 17.6548C6.0801 17.5869 6.06583 17.5141 6.06604 17.4407V6.49835C6.06583 6.42494 6.0801 6.3522 6.10805 6.28431C6.13599 6.21642 6.17706 6.15472 6.2289 6.10273C6.28073 6.05074 6.34232 6.00949 6.41013 5.98135C6.47793 5.9532 6.55063 5.93872 6.62404 5.93872H9.31095C9.45938 5.93872 9.60172 5.99768 9.70667 6.10263C9.81163 6.20758 9.87059 6.34993 9.87059 6.49835V7.44417C10.5055 6.49181 11.4464 5.75708 13.4542 5.75708C17.9019 5.75708 17.8757 9.91017 17.8757 12.1913Z" fill="#0077B5"/>
</svg>
