<svg width="19" height="19" viewBox="0 0 19 19" fill="none" xmlns="http://www.w3.org/2000/svg">
<path d="M9.42857 6.27284C7.69282 6.27284 6.28571 7.67706 6.28571 9.40926C6.28571 11.1415 7.69282 12.5457 9.42857 12.5457C11.1643 12.5457 12.5714 11.1415 12.5714 9.40926C12.5714 7.67706 11.1643 6.27284 9.42857 6.27284Z" fill="#FE0199"/>
<path fill-rule="evenodd" clip-rule="evenodd" d="M5.65714 0C2.53279 0 0 2.5276 0 5.64555V13.173C0 16.2909 2.53279 18.8185 5.65714 18.8185H13.2C16.3244 18.8185 18.8571 16.2909 18.8571 13.173V5.64555C18.8571 2.5276 16.3244 0 13.2 0H5.65714ZM5.02857 9.40926C5.02857 6.98418 6.99852 5.01827 9.42857 5.01827C11.8586 5.01827 13.8286 6.98418 13.8286 9.40926C13.8286 11.8343 11.8586 13.8002 9.42857 13.8002C6.99852 13.8002 5.02857 11.8343 5.02857 9.40926ZM13.8286 5.01827H15.0857V3.7637H13.8286V5.01827Z" fill="#FE0199"/>
</svg>
