<svg width="34" height="34" viewBox="0 0 34 34" fill="none" xmlns="http://www.w3.org/2000/svg">
<g clip-path="url(#clip0_225_373)">
<path d="M22.2467 19.4321C22.2467 20.9594 23.4892 22.2019 25.0165 22.2019H34V16.6622H25.0165C23.4893 16.6623 22.2467 17.9048 22.2467 19.4321ZM26.5312 19.5134C26.5312 20.1301 26.0313 20.63 25.4146 20.63C24.7979 20.63 24.298 20.1301 24.298 19.5134C24.298 18.8968 24.7979 18.3969 25.4146 18.3969C26.0313 18.3969 26.5312 18.8968 26.5312 19.5134Z" fill="#B672FF"/>
<path d="M25.0165 24.3463C22.3065 24.3463 20.1018 22.1415 20.1018 19.4316C20.1018 16.7216 22.3066 14.5168 25.0165 14.5168H34V10.7741C34 8.24234 31.9403 6.18262 29.4085 6.18262H4.59146C2.05972 6.18262 0 8.24234 0 10.7741V27.9557C0 30.4875 2.05972 32.5472 4.59146 32.5472H29.4086C31.9403 32.5472 34.0001 30.4875 34.0001 27.9557V24.3463H25.0165Z" fill="#B672FF"/>
<path d="M4.59149 4.03822C31.5675 4.03822 29.6342 4.01597 30.2265 4.08796C29.4906 2.53182 27.9061 1.45239 26.0736 1.45239H4.59149C2.12625 1.45239 0.109423 3.40554 0.00512695 5.84552C1.20856 4.72493 2.8212 4.03822 4.59149 4.03822Z" fill="#B672FF"/>
</g>
<defs>
<clipPath id="clip0_225_373">
<rect width="34" height="34" fill="white"/>
</clipPath>
</defs>
</svg>
