<svg width="19" height="15" viewBox="0 0 19 15" fill="none" xmlns="http://www.w3.org/2000/svg">
<path d="M18.8571 1.76701C18.1642 2.06899 17.4189 2.27047 16.6327 2.36581C17.432 1.89893 18.0469 1.1543 18.3355 0.274662C17.5875 0.70598 16.7589 1.0229 15.8774 1.18986C15.1735 0.455538 14.1694 0 13.057 0C10.92 0 9.1879 1.6892 9.1879 3.7721C9.1879 4.06686 9.22299 4.35389 9.28899 4.63267C6.07411 4.47396 3.22273 2.97027 1.31518 0.68846C0.979966 1.24603 0.79141 1.89893 0.79141 2.58791C0.79141 3.89732 1.47283 5.05008 2.51198 5.72926C1.8777 5.7102 1.28061 5.53654 0.757889 5.25827C0.757889 5.2696 0.757889 5.28661 0.757889 5.30258C0.757889 7.13246 2.09192 8.65625 3.86015 9.00305C3.53699 9.09014 3.1955 9.13858 2.84352 9.13858C2.59369 9.13858 2.35014 9.11075 2.11444 9.06901C2.60678 10.5645 4.03509 11.6574 5.72738 11.6899C4.4033 12.6999 2.73563 13.3049 0.922352 13.3049C0.60914 13.3049 0.302737 13.2874 0 13.2513C1.71324 14.3185 3.74754 14.9441 5.93112 14.9441C13.0465 14.9441 16.9391 9.19527 16.9391 4.20806C16.9391 4.0447 16.9339 3.88186 16.926 3.72108C17.6855 3.1934 18.3402 2.52762 18.8571 1.76701Z" fill="#1D9BF0"/>
</svg>
