<svg width="34" height="34" viewBox="0 0 34 34" fill="none" xmlns="http://www.w3.org/2000/svg">
<g clip-path="url(#clip0_225_324)">
<path d="M17.0024 0C12.1452 0 8.17468 3.9705 8.17468 8.82768C8.17468 13.6849 12.1452 17.6554 17.0024 17.6554C21.8595 17.6554 25.83 13.6849 25.83 8.82768C25.83 3.9705 21.8595 0 17.0024 0Z" fill="#FA5A7D"/>
<path d="M32.152 24.71C31.9207 24.1318 31.6124 23.5921 31.2654 23.091C29.4922 20.4696 26.7553 18.7349 23.6714 18.3109C23.2859 18.2724 22.8619 18.3494 22.5535 18.5807C20.9344 19.7758 19.007 20.3925 17.0024 20.3925C14.9978 20.3925 13.0704 19.7758 11.4514 18.5807C11.1429 18.3494 10.7189 18.2338 10.3334 18.3109C7.24954 18.7349 4.47406 20.4696 2.73938 23.091C2.39244 23.5921 2.08402 24.1704 1.85278 24.71C1.73716 24.9413 1.77567 25.2112 1.8913 25.4425C2.19972 25.9822 2.58517 26.5219 2.9321 26.9844C3.47176 27.7169 4.05001 28.3722 4.70537 28.989C5.24503 29.5286 5.8618 30.0298 6.47864 30.5309C9.52396 32.8053 13.1861 34.0003 16.9639 34.0003C20.7417 34.0003 24.4038 32.8052 27.4491 30.5309C28.0659 30.0684 28.6827 29.5286 29.2224 28.989C29.8392 28.3722 30.4559 27.7168 30.9957 26.9844C31.3811 26.4833 31.7281 25.9822 32.0365 25.4425C32.2291 25.2112 32.2677 24.9413 32.152 24.71Z" fill="#FA5A7D"/>
</g>
<defs>
<clipPath id="clip0_225_324">
<rect width="34" height="34" fill="white"/>
</clipPath>
</defs>
</svg>
